<svg width="14" height="20" viewBox="0 0 14 20" fill="none" xmlns="http://www.w3.org/2000/svg">
<path d="M12.8301 10.74C12.5501 10.17 11.7601 9.69 10.7101 10.5C9.28005 11.64 7.00005 11.64 7.00005 11.64C7.00005 11.64 4.72005 11.64 3.29005 10.5C2.24005 9.69 1.45005 10.17 1.17005 10.74C0.670051 11.74 1.23005 12.23 2.50005 13.04C3.59005 13.74 5.08005 14 6.04005 14.1L5.24005 14.9C4.10005 16.03 3.00005 17.12 2.25005 17.88C1.80005 18.34 1.80005 19.07 2.25005 19.5L2.39005 19.66C2.84005 20.11 3.58005 20.11 4.03005 19.66L7.00005 16.68C8.15005 17.81 9.24005 18.9 10.0001 19.66C10.4501 20.11 11.18 20.11 11.64 19.66L11.7701 19.5C12.2301 19.07 12.2301 18.34 11.7701 17.88L8.79005 14.9L8.00005 14.09C8.95005 14 10.4201 13.73 11.5001 13.04C12.7701 12.23 13.3301 11.74 12.8301 10.74ZM7.00005 2.57C8.38005 2.57 9.50005 3.69 9.50005 5.06C9.50005 6.44 8.38005 7.55 7.00005 7.55C5.62005 7.55 4.50005 6.44 4.50005 5.06C4.50005 3.69 5.62005 2.57 7.00005 2.57ZM7.00005 10.12C9.80005 10.12 12.0601 7.86 12.0601 5.06C12.0601 3.718 11.5269 2.43097 10.578 1.48204C9.62908 0.533106 8.34205 0 7.00005 0C5.65806 0 4.37102 0.533106 3.42209 1.48204C2.47316 2.43097 1.94005 3.718 1.94005 5.06C1.94005 7.86 4.20005 10.12 7.00005 10.12Z" fill="white"/>
</svg>
