<svg width="184" height="190" viewBox="0 0 184 190" fill="none" xmlns="http://www.w3.org/2000/svg">
<path d="M12.032 83.1903L12.1585 81.6957C12.868 81.8349 13.4916 82.0949 14.0291 82.4755C14.5666 82.8562 14.9757 83.3643 15.2564 84C15.5319 84.6353 15.6312 85.407 15.5543 86.3152C15.4981 86.9795 15.3223 87.5734 15.0271 88.097C14.7323 88.6153 14.3401 89.0496 13.8505 89.3996C13.3557 89.7493 12.7776 90.0029 12.1161 90.1605C11.4498 90.3125 10.7197 90.3544 9.92578 90.2864L8.79711 90.1896C8.00314 90.1215 7.29322 89.9561 6.66732 89.6933C6.03667 89.4249 5.50713 89.0737 5.07867 88.6397C4.65066 88.2005 4.33584 87.6899 4.13421 87.1081C3.93258 86.5262 3.86143 85.885 3.92075 85.1844C3.99325 84.3281 4.21542 83.6179 4.58725 83.0538C4.95908 82.4898 5.44424 82.0688 6.04275 81.7908C6.6365 81.5071 7.31031 81.3584 8.06416 81.3446L7.9376 82.8393C7.40214 82.8666 6.93666 82.9626 6.54114 83.1273C6.14044 83.2916 5.82092 83.5465 5.58259 83.8919C5.34426 84.2374 5.20026 84.7034 5.15061 85.2898C5.10799 85.7932 5.16642 86.2452 5.32591 86.6457C5.48583 87.041 5.73125 87.3835 6.06215 87.6733C6.39349 87.9578 6.80016 88.1861 7.28216 88.3581C7.76415 88.5302 8.30613 88.642 8.90809 88.6936L10.0523 88.7917C10.6076 88.8393 11.1339 88.8269 11.6314 88.7546C12.1293 88.677 12.5726 88.5347 12.9612 88.3276C13.3499 88.1204 13.6662 87.8417 13.9101 87.4915C14.1489 87.1408 14.2896 86.7138 14.3322 86.2104C14.3863 85.5721 14.3282 85.0548 14.1579 84.6586C13.9875 84.2624 13.7211 83.952 13.3586 83.7275C12.9964 83.4978 12.5542 83.3188 12.032 83.1903Z" fill="white"/>
<path d="M5.9949 71.5901L6.43565 70.1973L16.3916 69.4726L8.68186 63.0989L9.12497 61.6986L18.5627 69.5772L18.2186 70.6647L5.9949 71.5901ZM5.85112 72.0445L6.24002 70.8155L12.9107 72.7302L17.1368 74.0835L16.6842 75.5136L5.85112 72.0445ZM8.87749 62.4807L9.26639 61.2517L20.0995 64.7208L19.6469 66.1509L15.4208 64.7976L8.87749 62.4807Z" fill="white"/>
<path d="M22.8202 46.9265L23.4366 47.2962C24.169 47.7357 24.7711 48.2214 25.2428 48.7534C25.7146 49.2854 26.0514 49.8458 26.2533 50.4347C26.4552 51.0235 26.5199 51.6241 26.4474 52.2366C26.3776 52.8446 26.1661 53.4465 25.8128 54.0424C25.4702 54.6203 25.0483 55.0869 24.5471 55.4422C24.0485 55.7929 23.4911 56.0234 22.8748 56.1335C22.2612 56.2391 21.607 56.2141 20.9122 56.0584C20.2174 55.9027 19.5037 55.6051 18.7713 55.1657L18.1549 54.7959C17.4225 54.3565 16.824 53.8699 16.3594 53.3361C15.893 52.7951 15.5601 52.2279 15.3609 51.6346C15.1572 51.0387 15.0902 50.4367 15.16 49.8287C15.2325 49.2162 15.44 48.621 15.7827 48.0431C16.1359 47.4472 16.5618 46.9739 17.0604 46.6231C17.5616 46.2679 18.12 46.041 18.7354 45.9425C19.349 45.8369 20.0005 45.8664 20.69 46.0311C21.3777 46.1886 22.0878 46.487 22.8202 46.9265ZM22.6756 48.5798L22.0459 48.202C21.4653 47.8537 20.9158 47.606 20.3975 47.459C19.8818 47.3076 19.4044 47.255 18.9652 47.3013C18.5261 47.3475 18.1301 47.4896 17.7772 47.7273C17.427 47.9606 17.1284 48.2856 16.8814 48.7022C16.6423 49.1054 16.504 49.5175 16.4664 49.9383C16.4315 50.3547 16.4969 50.7704 16.6625 51.1856C16.8307 51.5963 17.101 51.9983 17.4732 52.3917C17.8455 52.7851 18.3219 53.156 18.9025 53.5043L19.5322 53.8821C20.1173 54.2331 20.6726 54.4812 21.198 54.6264C21.719 54.7689 22.2027 54.8161 22.6489 54.768C23.0934 54.7128 23.4894 54.5708 23.837 54.342C24.1872 54.1087 24.4818 53.7905 24.7208 53.3873C24.9705 52.9661 25.1141 52.5451 25.1517 52.1243C25.1893 51.7034 25.1226 51.2899 24.9517 50.8837C24.779 50.4703 24.5039 50.0714 24.1263 49.687C23.7443 49.2999 23.2607 48.9308 22.6756 48.5798Z" fill="white"/>
<path d="M27.3922 33.2049L35.7555 40.915L34.7559 42.0123L26.3926 34.3022L27.3922 33.2049ZM29.8545 30.502L30.762 31.3387L24.8432 37.836L23.9356 36.9994L29.8545 30.502Z" fill="white"/>
<path d="M43.6505 26.9596L41.2023 28.7602L40.4812 27.768L42.9294 25.9674C43.4035 25.6186 43.7323 25.2605 43.9157 24.8928C44.0992 24.5251 44.1601 24.157 44.0984 23.7886C44.0409 23.4172 43.8866 23.0587 43.6355 22.7132C43.4058 22.3972 43.1207 22.1511 42.7802 21.9749C42.4438 21.7956 42.0676 21.7296 41.6514 21.7771C41.2321 21.8204 40.7855 22.0164 40.3113 22.3651L38.1464 23.9574L44.1081 32.1605L42.8934 33.0538L36.206 23.8522L39.5856 21.3666C40.2779 20.8574 40.9505 20.547 41.6034 20.4353C42.2562 20.3237 42.861 20.3896 43.4178 20.6331C43.9716 20.8723 44.446 21.2637 44.841 21.8072C45.2696 22.397 45.5118 22.9916 45.5674 23.5907C45.623 24.1899 45.4912 24.7749 45.1721 25.3458C44.85 25.9125 44.3428 26.4504 43.6505 26.9596Z" fill="white"/>
<path d="M62.523 20.5061L63.0358 21.6203L57.5756 24.1636L57.0628 23.0494L62.523 20.5061ZM53.0959 13.7019L57.8518 24.0349L56.485 24.6716L51.7291 14.3385L53.0959 13.7019ZM59.6023 16.0664L60.1151 17.1806L55.3773 19.3874L54.8645 18.2732L59.6023 16.0664ZM58.2091 11.3202L58.7252 12.4415L53.3358 14.9518L52.8197 13.8305L58.2091 11.3202Z" fill="white"/>
<path d="M71.2471 6.72115L73.9613 17.7676L72.5208 18.1258L69.8066 7.07934L71.2471 6.72115ZM74.7954 5.83887L75.0899 7.03759L66.5605 9.15845L66.266 7.95973L74.7954 5.83887Z" fill="white"/>
<path d="M84.8136 8.63499L87.912 8.49576C88.7445 8.45835 89.4532 8.56728 90.038 8.82253C90.6225 9.07258 91.0742 9.4407 91.393 9.92688C91.7117 10.4131 91.886 10.9918 91.9158 11.663C91.938 12.1625 91.8751 12.6241 91.7271 13.0478C91.5788 13.4664 91.3476 13.8365 91.0334 14.1582C90.719 14.4747 90.3262 14.727 89.8549 14.915C89.3834 15.0978 88.8354 15.2033 88.2111 15.2313L83.9654 15.4221L83.4608 4.05829L84.9671 3.9906L85.4172 14.1291L88.1567 14.006C88.7134 13.9809 89.159 13.8593 89.4934 13.6409C89.8327 13.4171 90.0757 13.1351 90.2222 12.7948C90.3687 12.4546 90.4335 12.0945 90.4166 11.7147C90.3998 11.3349 90.3036 10.9899 90.1282 10.6797C89.9529 10.3696 89.6867 10.1287 89.3298 9.95703C88.9778 9.77994 88.5235 9.7039 87.9668 9.72892L84.8683 9.86815L84.8136 8.63499Z" fill="white"/>
<path d="M115.408 7.48083L112.415 18.4549L110.984 18.0598L113.978 7.08583L115.408 7.48083ZM118.933 8.45378L118.608 9.64464L110.136 7.30582L110.461 6.11496L118.933 8.45378Z" fill="white"/>
<path d="M128.258 19.4799L125.546 18.1092L126.094 17.0119L128.806 18.3825C129.332 18.648 129.799 18.779 130.208 18.7757C130.617 18.7724 130.971 18.6592 131.268 18.4362C131.571 18.2155 131.817 17.9141 132.008 17.532C132.183 17.1825 132.27 16.8152 132.27 16.4302C132.275 16.0475 132.161 15.6807 131.929 15.3299C131.699 14.9744 131.321 14.6639 130.796 14.3985L128.397 13.1864L123.867 22.2588L122.521 21.5788L127.603 11.402L131.347 13.2941C132.114 13.6817 132.696 14.1422 133.094 14.6756C133.491 15.209 133.709 15.7803 133.749 16.3895C133.79 16.9941 133.661 17.5969 133.361 18.198C133.035 18.8504 132.62 19.3379 132.115 19.6607C131.611 19.9834 131.033 20.132 130.382 20.1065C129.733 20.0764 129.025 19.8675 128.258 19.4799Z" fill="white"/>
<path d="M143.321 32.8122L142.569 33.7809L137.833 30.059L138.585 29.0902L143.321 32.8122ZM145.05 21.2632L138.073 30.2473L136.887 29.3156L143.864 20.3315L145.05 21.2632ZM145.92 28.1671L145.167 29.1359L141.058 25.9063L141.81 24.9376L145.92 28.1671ZM149.484 24.7486L148.727 25.7235L144.053 22.0498L144.81 21.0749L149.484 24.7486Z" fill="white"/>
<path d="M150.492 39.0248L160.771 37.6166L161.743 38.7692L153.091 46.1535L152.119 45.0009L158.792 39.3054L148.508 40.7188L147.541 39.5721L156.193 32.1878L157.16 33.3345L150.492 39.0248ZM161.884 34.5614L162.639 35.4572C162.33 35.721 161.995 35.8843 161.632 35.9472C161.273 36.0067 160.914 35.9606 160.555 35.8088C160.195 35.657 159.861 35.3979 159.552 35.0316C159.085 34.4782 158.862 33.9151 158.884 33.3424C158.912 32.7703 159.16 32.2848 159.628 31.8858L160.383 32.7817C160.149 32.9811 160 33.2246 159.936 33.5122C159.872 33.7997 159.978 34.1067 160.253 34.4332C160.522 34.7517 160.802 34.9026 161.095 34.8858C161.387 34.869 161.65 34.7609 161.884 34.5614Z" fill="white"/>
<path d="M170.877 54.2738L169.788 54.8539L167.365 50.249L168.455 49.669L170.877 54.2738ZM171.481 55.4215L161.44 60.767L160.738 59.4325L170.779 54.0871L171.481 55.4215ZM168.215 49.2126L168.913 50.5402L163.876 52.9296C163.151 53.2743 162.49 53.5555 161.893 53.7733C161.302 53.9932 160.766 54.143 160.284 54.2225C159.807 54.2996 159.377 54.2985 158.993 54.2192C158.615 54.1375 158.277 53.9696 157.978 53.7154C157.682 53.4659 157.416 53.1176 157.181 52.6705L156.992 52.311L158.075 51.7346L158.241 52.0001C158.395 52.2484 158.569 52.4391 158.763 52.5721C158.963 52.7072 159.198 52.7855 159.469 52.8069C159.741 52.8328 160.06 52.8017 160.426 52.7133C160.791 52.6249 161.218 52.4802 161.707 52.2791C162.202 52.0802 162.77 51.8281 163.41 51.5229L168.215 49.2126Z" fill="white"/>
<path d="M168.211 74.1731L167.034 74.5171L165.363 68.7301L166.54 68.386L168.211 74.1731ZM176.366 65.8325L165.448 69.0228L165.029 67.5741L175.948 64.3838L176.366 65.8325ZM173.037 71.9328L171.86 72.2768L170.41 67.2554L171.587 66.9114L173.037 71.9328ZM177.931 71.2517L176.746 71.5979L175.097 65.8859L176.282 65.5397L177.931 71.2517Z" fill="white"/>
<path d="M173.027 85.6632L172.771 82.635L173.993 82.5302L174.25 85.5585C174.299 86.1449 174.433 86.6118 174.65 86.959C174.868 87.3063 175.15 87.5487 175.496 87.6863C175.843 87.8291 176.229 87.8823 176.654 87.8458C177.043 87.8125 177.402 87.6955 177.73 87.4949C178.058 87.2994 178.311 87.0112 178.488 86.6301C178.67 86.2486 178.736 85.7646 178.686 85.1782L178.46 82.5002L168.356 83.3663L168.229 81.8638L179.562 80.8924L179.916 85.0727C179.989 85.929 179.902 86.6657 179.657 87.2827C179.411 87.8997 179.039 88.3837 178.541 88.7348C178.048 89.0855 177.467 89.2895 176.797 89.3469C176.071 89.4092 175.437 89.3092 174.898 89.0471C174.358 88.7849 173.928 88.3696 173.608 87.8011C173.294 87.2321 173.1 86.5195 173.027 85.6632Z" fill="white"/>
<path d="M171.966 106.808L171.839 108.302C171.13 108.163 170.506 107.903 169.969 107.523C169.431 107.142 169.022 106.634 168.742 105.999C168.466 105.364 168.367 104.592 168.444 103.684C168.501 103.02 168.676 102.426 168.972 101.902C169.267 101.384 169.659 100.949 170.149 100.599C170.644 100.249 171.222 99.9956 171.883 99.8378C172.55 99.6857 173.28 99.6436 174.074 99.7115L175.203 99.808C175.996 99.8759 176.706 100.041 177.332 100.304C177.963 100.572 178.492 100.923 178.921 101.357C179.349 101.796 179.663 102.307 179.865 102.888C180.066 103.47 180.137 104.111 180.078 104.812C180.005 105.668 179.783 106.378 179.411 106.943C179.039 107.507 178.554 107.928 177.955 108.206C177.361 108.49 176.687 108.639 175.934 108.652L176.06 107.158C176.596 107.13 177.061 107.034 177.457 106.87C177.858 106.705 178.177 106.45 178.416 106.105C178.654 105.759 178.798 105.293 178.848 104.707C178.891 104.203 178.832 103.751 178.673 103.351C178.513 102.956 178.268 102.613 177.937 102.324C177.606 102.039 177.199 101.811 176.717 101.639C176.235 101.467 175.693 101.355 175.091 101.304L173.947 101.206C173.392 101.159 172.865 101.171 172.368 101.244C171.87 101.321 171.427 101.464 171.038 101.671C170.649 101.878 170.333 102.157 170.089 102.507C169.85 102.858 169.709 103.285 169.666 103.788C169.612 104.427 169.67 104.944 169.84 105.34C170.011 105.736 170.277 106.046 170.639 106.271C171.002 106.5 171.444 106.679 171.966 106.808Z" fill="white"/>
<path d="M178.003 118.409L177.561 119.801L167.6 120.532L175.309 126.898L174.865 128.298L165.428 120.429L165.773 119.342L178.003 118.409ZM178.147 117.955L177.757 119.183L171.085 117.274L166.858 115.924L167.311 114.494L178.147 117.955ZM175.113 127.516L174.723 128.745L163.888 125.284L164.341 123.854L168.568 125.204L175.113 127.516Z" fill="white"/>
<path d="M161.164 143.075L160.547 142.706C159.814 142.267 159.212 141.782 158.74 141.251C158.268 140.72 157.931 140.16 157.729 139.572C157.528 138.984 157.463 138.384 157.536 137.772C157.606 137.165 157.818 136.563 158.172 135.968C158.516 135.39 158.938 134.924 159.44 134.569C159.94 134.218 160.498 133.987 161.115 133.877C161.729 133.771 162.384 133.796 163.079 133.951C163.775 134.106 164.489 134.403 165.222 134.842L165.839 135.211C166.572 135.649 167.171 136.135 167.635 136.668C168.102 137.208 168.435 137.775 168.634 138.367C168.837 138.962 168.904 139.564 168.834 140.171C168.761 140.783 168.553 141.378 168.21 141.955C167.856 142.551 167.429 143.024 166.93 143.374C166.428 143.73 165.869 143.957 165.253 144.055C164.638 144.161 163.986 144.132 163.296 143.968C162.608 143.811 161.897 143.513 161.164 143.075ZM161.31 141.423L161.94 141.8C162.521 142.148 163.071 142.395 163.59 142.541C164.106 142.692 164.584 142.745 165.023 142.698C165.463 142.652 165.859 142.509 166.213 142.272C166.564 142.039 166.863 141.714 167.11 141.297C167.35 140.894 167.488 140.483 167.526 140.062C167.561 139.646 167.496 139.231 167.331 138.816C167.163 138.406 166.892 138.005 166.52 137.612C166.147 137.219 165.671 136.849 165.09 136.501L164.459 136.124C163.874 135.774 163.318 135.526 162.792 135.382C162.271 135.24 161.787 135.193 161.34 135.241C160.895 135.296 160.498 135.439 160.15 135.667C159.8 135.901 159.505 136.219 159.265 136.622C159.015 137.042 158.871 137.463 158.833 137.883C158.795 138.304 158.862 138.717 159.033 139.123C159.205 139.536 159.48 139.934 159.858 140.318C160.24 140.704 160.724 141.073 161.31 141.423Z" fill="white"/>
<path d="M156.6 156.793L148.226 149.094L149.227 147.998L157.601 155.697L156.6 156.793ZM154.134 159.492L153.225 158.657L159.153 152.167L160.061 153.003L154.134 159.492Z" fill="white"/>
<path d="M140.335 163.043L142.785 161.245L143.508 162.236L141.057 164.034C140.583 164.382 140.254 164.74 140.07 165.107C139.887 165.474 139.826 165.841 139.888 166.209C139.945 166.58 140.1 166.939 140.352 167.284C140.582 167.599 140.867 167.845 141.208 168.022C141.545 168.201 141.922 168.267 142.338 168.219C142.758 168.176 143.205 167.981 143.68 167.633L145.847 166.043L139.875 157.848L141.091 156.956L147.79 166.149L144.407 168.63C143.714 169.139 143.041 169.448 142.387 169.56C141.733 169.671 141.128 169.605 140.57 169.361C140.016 169.122 139.541 168.731 139.145 168.188C138.716 167.599 138.473 167.005 138.417 166.407C138.361 165.808 138.493 165.224 138.812 164.654C139.134 164.088 139.642 163.551 140.335 163.043Z" fill="white"/>
<path d="M121.461 169.492L120.947 168.379L126.41 165.841L126.924 166.955L121.461 169.492ZM130.9 176.298L126.134 165.969L127.501 165.334L132.267 175.662L130.9 176.298ZM124.387 173.931L123.873 172.817L128.613 170.615L129.127 171.729L124.387 173.931ZM125.784 178.674L125.267 177.553L130.659 175.048L131.176 176.169L125.784 178.674Z" fill="white"/>
<path d="M112.75 183.277L110.029 172.232L111.47 171.875L114.191 182.92L112.75 183.277ZM109.202 184.157L108.906 182.959L117.437 180.843L117.732 182.042L109.202 184.157Z" fill="white"/>
<path d="M99.1864 181.366L96.088 181.505C95.2555 181.542 94.5468 181.433 93.9619 181.178C93.3773 180.928 92.9256 180.56 92.6068 180.073C92.288 179.587 92.1136 179.008 92.0837 178.337C92.0615 177.838 92.1244 177.376 92.2723 176.952C92.4205 176.534 92.6517 176.164 92.9658 175.842C93.2802 175.526 93.673 175.273 94.1443 175.085C94.6158 174.903 95.1637 174.797 95.7881 174.769L100.034 174.579L100.54 185.943L99.0335 186.01L98.5821 175.872L95.8426 175.995C95.2859 176.02 94.8404 176.141 94.506 176.36C94.1666 176.583 93.9237 176.865 93.7773 177.206C93.6308 177.546 93.566 177.906 93.5829 178.286C93.5998 178.665 93.696 179.01 93.8714 179.321C94.0469 179.631 94.313 179.872 94.67 180.043C95.022 180.221 95.4763 180.297 96.0331 180.272L99.1315 180.133L99.1864 181.366Z" fill="white"/>
<path d="M68.595 182.525L71.596 171.553L73.0272 171.947L70.0261 182.919L68.595 182.525ZM65.0699 181.554L65.3955 180.363L73.8693 182.696L73.5436 183.887L65.0699 181.554Z" fill="white"/>
<path d="M55.7509 170.531L58.4648 171.899L57.9157 172.996L55.2018 171.628C54.6762 171.363 54.2087 171.232 53.7991 171.236C53.3896 171.24 53.0358 171.353 52.7378 171.576C52.435 171.797 52.1881 172.098 51.9969 172.48C51.822 172.829 51.7343 173.196 51.7339 173.581C51.7289 173.963 51.8425 174.33 52.0748 174.68C52.3048 175.035 52.6825 175.345 53.2081 175.61L55.608 176.819L60.148 167.752L61.4945 168.43L56.4019 178.602L52.6555 176.714C51.888 176.327 51.3057 175.867 50.9084 175.334C50.5111 174.802 50.2929 174.231 50.254 173.622C50.2128 173.018 50.3426 172.416 50.6434 171.815C50.9698 171.163 51.3857 170.676 51.891 170.353C52.3962 170.03 52.9746 169.881 53.6261 169.907C54.2752 169.936 54.9835 170.144 55.7509 170.531Z" fill="white"/>
<path d="M40.6879 157.208L41.4415 156.24L46.1823 159.956L45.4287 160.924L40.6879 157.208ZM38.9539 168.743L45.9425 159.768L47.1292 160.698L40.1406 169.673L38.9539 168.743ZM38.0848 161.848L38.8384 160.88L42.952 164.104L42.1984 165.072L38.0848 161.848ZM34.5144 165.263L35.2728 164.289L39.9521 167.957L39.1937 168.931L34.5144 165.263Z" fill="white"/>
<path d="M33.5173 150.99L23.2253 152.394L22.2517 151.242L30.9138 143.87L31.8874 145.021L25.2064 150.708L35.5043 149.298L36.4729 150.444L27.8108 157.816L26.8422 156.671L33.5173 150.99ZM22.1118 155.445L21.3551 154.55C21.6645 154.287 22.0006 154.124 22.3636 154.061C22.7227 154.001 23.0823 154.048 23.4425 154.199C23.8026 154.351 24.1374 154.61 24.4468 154.976C24.9143 155.528 25.1374 156.091 25.1163 156.663C25.0879 157.234 24.8397 157.719 24.3717 158.117L23.615 157.222C23.849 157.023 23.9981 156.78 24.0622 156.493C24.1264 156.206 24.0206 155.899 23.7448 155.573C23.4758 155.255 23.1948 155.104 22.902 155.121C22.6092 155.138 22.3458 155.246 22.1118 155.445Z" fill="white"/>
<path d="M13.1184 135.733L14.2086 135.154L16.6362 139.756L15.5459 140.335L13.1184 135.733ZM12.5134 134.586L22.5601 129.251L23.2635 130.585L13.2168 135.919L12.5134 134.586ZM15.7865 140.791L15.0867 139.464L20.1268 137.08C20.8522 136.736 21.5139 136.456 22.1118 136.238C22.7027 136.019 23.2393 135.87 23.7217 135.79C24.1994 135.714 24.6299 135.715 25.0134 135.795C25.3922 135.876 25.7311 136.044 26.03 136.299C26.3265 136.548 26.5926 136.896 26.8283 137.343L27.0178 137.702L25.9345 138.278L25.768 138.012C25.6135 137.764 25.4394 137.573 25.2456 137.44C25.0447 137.305 24.8091 137.227 24.5386 137.205C24.2658 137.179 23.9465 137.21 23.5807 137.298C23.215 137.386 22.7876 137.531 22.2987 137.731C21.8028 137.93 21.2347 138.181 20.5945 138.486L15.7865 140.791Z" fill="white"/>
<path d="M15.788 115.835L16.9656 115.492L18.6407 121.278L17.4631 121.621L15.788 115.835ZM7.63517 124.168L18.5559 120.985L18.9752 122.434L8.05448 125.616L7.63517 124.168ZM10.9618 118.072L12.1394 117.729L13.5928 122.749L12.4152 123.092L10.9618 118.072ZM6.06658 118.75L7.25166 118.404L8.90499 124.115L7.7199 124.461L6.06658 118.75Z" fill="white"/>
<path d="M10.974 104.336L11.2311 107.364L10.009 107.468L9.75186 104.44C9.70206 103.854 9.56832 103.387 9.35065 103.04C9.13298 102.692 8.85103 102.45 8.50481 102.312C8.15814 102.169 7.77204 102.116 7.34651 102.152C6.95731 102.186 6.59873 102.302 6.27077 102.503C5.94237 102.698 5.68981 102.987 5.51309 103.368C5.33117 103.749 5.26512 104.233 5.31492 104.819L5.54234 107.497L15.6461 106.634L15.7737 108.136L4.44004 109.105L4.08503 104.925C4.01231 104.068 4.09872 103.332 4.34428 102.715C4.58983 102.098 4.96167 101.614 5.4598 101.263C5.95273 100.912 6.53392 100.708 7.20335 100.651C7.92987 100.589 8.563 100.689 9.10276 100.951C9.64251 101.214 10.0724 101.629 10.3925 102.198C10.7074 102.767 10.9012 103.479 10.974 104.336Z" fill="white"/>
</svg>
