<svg width="93" height="97" viewBox="0 0 93 97" fill="none" xmlns="http://www.w3.org/2000/svg">
<path d="M56.9556 4.08418L54.8146 3.71383L53.7875 9.65183L52.9137 9.50069L53.9408 3.56269L51.8044 3.19314L51.9295 2.47033L57.0806 3.36137L56.9556 4.08418Z" fill="white"/>
<path d="M35.8318 4.08418L37.9727 3.71383L38.9999 9.65183L39.8737 9.50069L38.8465 3.56269L40.9829 3.19314L40.8579 2.47033L35.7067 3.36137L35.8318 4.08418Z" fill="white"/>
<path d="M60.5124 8.76314L59.5218 11.2171L58.6953 10.8834L61.2256 4.61512L63.5375 5.54837C64.2234 5.82528 64.6895 6.21701 64.9356 6.72357C65.1846 7.23129 65.1926 7.77359 64.9597 8.35048C64.7141 8.95893 64.3338 9.35115 63.8189 9.52711C63.3079 9.70137 62.698 9.64541 61.9891 9.35923L60.5124 8.76314ZM60.7853 8.08723L62.2706 8.68681C62.7125 8.86523 63.0929 8.89862 63.4117 8.78698C63.7316 8.67247 63.9709 8.41861 64.1297 8.02541C64.2803 7.6523 64.2831 7.30631 64.1381 6.98744C63.9932 6.66857 63.7172 6.42199 63.3102 6.2477L61.7776 5.62901L60.7853 8.08723Z" fill="white"/>
<path d="M32.2747 8.76314L33.2653 11.2171L34.0919 10.8834L31.5615 4.61512L29.2496 5.54837C28.5637 5.82528 28.0977 6.21701 27.8515 6.72357C27.6026 7.23129 27.5945 7.77359 27.8274 8.35048C28.073 8.95893 28.4533 9.35115 28.9683 9.52711C29.4792 9.70137 30.0891 9.64541 30.798 9.35923L32.2747 8.76314ZM32.0018 8.08723L30.5166 8.68681C30.0746 8.86523 29.6942 8.89862 29.3754 8.78698C29.0555 8.67247 28.8162 8.41861 28.6574 8.02541C28.5068 7.6523 28.504 7.30631 28.649 6.98744C28.794 6.66857 29.0699 6.42199 29.4769 6.2477L31.0095 5.62901L32.0018 8.08723Z" fill="white"/>
<path d="M70.9306 13.8646L68.5062 12.22L67.1614 14.2025L69.9776 16.1129L69.5684 16.7161L66.0145 14.3052L69.8094 8.71123L73.3248 11.096L72.913 11.7031L70.1352 9.81869L68.9154 11.6168L71.3398 13.2614L70.9306 13.8646Z" fill="white"/>
<path d="M21.8563 13.8646L24.2806 12.22L25.6255 14.2025L22.8093 16.1129L23.2185 16.7161L26.7724 14.3052L22.9775 8.71123L19.462 11.096L19.8739 11.7031L22.6516 9.81869L23.8714 11.6168L21.4471 13.2614L21.8563 13.8646Z" fill="white"/>
<path d="M79.8911 17.2995L80.5023 17.9484L75.5816 22.5831L74.9705 21.9342L78.7623 18.3627L72.6881 19.5111L72.0737 18.8588L76.9944 14.2241L77.6088 14.8763L73.8169 18.4479L79.8911 17.2995ZM80.9426 15.9647C80.67 16.2214 80.3623 16.3348 80.0194 16.3049C79.6809 16.275 79.3695 16.1092 79.0851 15.8073C78.8008 15.5054 78.6539 15.1824 78.6445 14.8383C78.6351 14.4943 78.7655 14.1949 79.0359 13.9403L79.5166 14.4506C79.3589 14.5992 79.2753 14.7587 79.2658 14.9292C79.2585 15.0976 79.3324 15.264 79.4873 15.4285C79.6359 15.5862 79.7954 15.6676 79.9661 15.6727C80.1388 15.68 80.3052 15.6084 80.4652 15.4577L80.9426 15.9647Z" fill="white"/>
<path d="M12.896 17.2995L12.2848 17.9484L17.2055 22.5831L17.8166 21.9342L14.0248 18.3627L20.099 19.5111L20.7134 18.8588L15.7927 14.2241L15.1783 14.8763L18.9702 18.4479L12.896 17.2995ZM11.8445 15.9647C12.1171 16.2214 12.4248 16.3348 12.7677 16.3049C13.1062 16.275 13.4176 16.1092 13.702 15.8073C13.9863 15.5054 14.1332 15.1824 14.1426 14.8383C14.1521 14.4943 14.0216 14.1949 13.7512 13.9403L13.2705 14.4506C13.4283 14.5992 13.5119 14.7587 13.5213 14.9292C13.5286 15.0976 13.4547 15.264 13.2998 15.4285C13.1513 15.5862 12.9917 15.6676 12.821 15.6727C12.6483 15.68 12.4819 15.6084 12.3219 15.4577L11.8445 15.9647Z" fill="white"/>
<path d="M86.0082 26.4234L80.1505 29.797L79.7056 29.0246L84.9277 26.017L83.7182 23.917L81.3366 25.1493C80.5356 25.557 79.9046 25.8133 79.4435 25.9182C78.9839 26.0257 78.5952 26.0174 78.2773 25.8933C77.962 25.7677 77.6905 25.5133 77.4627 25.1302L77.3167 24.8768L77.9484 24.513L78.0491 24.6693C78.2115 24.9079 78.4024 25.0533 78.6218 25.1055C78.8439 25.1562 79.1319 25.1261 79.4859 25.0151C79.8399 24.9041 80.3512 24.6757 81.0199 24.3298L83.9298 22.8146L86.0082 26.4234Z" fill="white"/>
<path d="M6.77892 26.4234L12.6366 29.797L13.0815 29.0246L7.85945 26.017L9.06896 23.917L11.4505 25.1493C12.2515 25.557 12.8826 25.8133 13.3436 25.9182C13.8032 26.0257 14.1919 26.0174 14.5098 25.8933C14.8251 25.7677 15.0966 25.5133 15.3244 25.1302L15.4704 24.8768L14.8387 24.513L14.738 24.6693C14.5756 24.9079 14.3847 25.0533 14.1653 25.1055C13.9432 25.1562 13.6552 25.1261 13.3012 25.0151C12.9473 24.9041 12.4359 24.6757 11.7672 24.3298L8.85733 22.8146L6.77892 26.4234Z" fill="white"/>
<path d="M85.5956 35.7555L84.7206 32.9597L82.4344 33.6752L83.4508 36.923L82.7551 37.1407L81.4725 33.0422L87.9237 31.0233L89.1925 35.0775L88.4924 35.2965L87.4899 32.0931L85.4163 32.742L86.2912 35.5378L85.5956 35.7555Z" fill="white"/>
<path d="M7.19151 35.7555L8.06646 32.9597L10.3527 33.6752L9.33635 36.923L10.032 37.1407L11.3146 33.0422L4.86341 31.0233L3.59465 35.0775L4.29471 35.2965L5.29724 32.0931L7.37083 32.742L6.49588 35.5378L7.19151 35.7555Z" fill="white"/>
<path d="M86.0818 41.0015L83.4464 41.2418L83.3655 40.3541L90.0973 39.7404L90.3236 42.2232C90.3908 42.9599 90.2553 43.5534 89.9172 44.0038C89.5793 44.4573 89.1006 44.7123 88.4811 44.7688C87.8276 44.8283 87.305 44.6693 86.9132 44.2917C86.5247 43.9168 86.2957 43.3487 86.2263 42.5874L86.0818 41.0015ZM86.8077 40.9354L86.9531 42.5305C86.9963 43.0052 87.1405 43.3588 87.3854 43.5913C87.6335 43.8235 87.9686 43.9204 88.3909 43.8819C88.7916 43.8454 89.1007 43.6898 89.318 43.4151C89.5354 43.1404 89.6287 42.7823 89.5977 42.3407L89.4477 40.6947L86.8077 40.9354Z" fill="white"/>
<path d="M6.70533 41.0015L9.34072 41.2418L9.42164 40.3541L2.68983 39.7404L2.46351 42.2232C2.39636 42.9599 2.53184 43.5534 2.86995 44.0038C3.20778 44.4573 3.68647 44.7123 4.30602 44.7688C4.95948 44.8283 5.48212 44.6693 5.87396 44.2917C6.26243 43.9168 6.49137 43.3487 6.56077 42.5874L6.70533 41.0015ZM5.97944 40.9354L5.83404 42.5305C5.79077 43.0052 5.64665 43.3588 5.40168 43.5913C5.15363 43.8235 4.81847 43.9204 4.39619 43.8819C3.99549 43.8454 3.68644 43.6898 3.46906 43.4151C3.25168 43.1404 3.15845 42.7823 3.18939 42.3407L3.33942 40.6947L5.97944 40.9354Z" fill="white"/>
<path d="M85.4372 57.5378C84.7328 57.3897 84.2066 57.076 83.8587 56.5968C83.5136 56.1209 83.3745 55.5161 83.4413 54.7825C83.5138 53.9873 83.8571 53.3752 84.4712 52.9464C85.085 52.5206 85.8696 52.3512 86.8251 52.4383L87.4724 52.4974C88.0981 52.5544 88.6382 52.7155 89.0927 52.9807C89.5468 53.249 89.8816 53.5996 90.097 54.0326C90.3155 54.4659 90.4001 54.9522 90.3509 55.4916C90.2857 56.2067 90.0331 56.7618 89.5931 57.1568C89.1561 57.5521 88.5815 57.753 87.8692 57.7595L87.9505 56.8672C88.4939 56.839 88.8976 56.7064 89.1616 56.4694C89.4253 56.2355 89.5783 55.8874 89.6204 55.425C89.6721 54.8579 89.5031 54.3934 89.1134 54.0315C88.7235 53.6728 88.1416 53.4581 87.368 53.3876L86.7161 53.3282C85.9855 53.2616 85.3906 53.3612 84.9313 53.627C84.4719 53.8928 84.2173 54.3 84.1672 54.8487C84.1223 55.3419 84.1988 55.7296 84.3969 56.0118C84.5977 56.2974 84.9716 56.5086 85.5186 56.6455L85.4372 57.5378Z" fill="white"/>
<path d="M7.34964 57.5378C8.05407 57.3897 8.58024 57.076 8.92816 56.5968C9.27327 56.1209 9.41239 55.5161 9.34552 54.7825C9.27303 53.9873 8.92975 53.3752 8.31569 52.9464C7.7019 52.5206 6.91725 52.3512 5.96173 52.4383L5.31444 52.4974C4.68873 52.5544 4.14865 52.7155 3.6942 52.9807C3.24003 53.249 2.90525 53.5996 2.68987 54.0326C2.47141 54.4659 2.38676 54.9522 2.43593 55.4916C2.50112 56.2067 2.75373 56.7618 3.19377 57.1568C3.63072 57.5521 4.20536 57.753 4.91768 57.7595L4.83634 56.8672C4.29299 56.839 3.8893 56.7064 3.62528 56.4694C3.36153 56.2355 3.20859 55.8874 3.16644 55.425C3.11474 54.8579 3.28374 54.3934 3.67344 54.0315C4.06341 53.6728 4.64523 53.4581 5.4189 53.3876L6.07081 53.3282C6.80132 53.2616 7.39625 53.3612 7.85559 53.627C8.31494 53.8928 8.56961 54.3 8.61963 54.8487C8.66458 55.3419 8.58804 55.7296 8.38999 56.0118C8.18915 56.2974 7.81525 56.5086 7.26829 56.6455L7.34964 57.5378Z" fill="white"/>
<path d="M88.6871 63.6414L82.7529 63.9407L87.2519 67.8218L86.8765 68.9151L80.4831 66.7202L80.7725 65.8771L83.2623 66.7319L85.9225 67.7335L81.466 63.8572L81.6876 63.2117L87.5706 62.89L84.8678 62.0554L82.378 61.2006L82.6675 60.3575L89.0609 62.5524L88.6871 63.6414Z" fill="white"/>
<path d="M4.10006 63.6414L10.0343 63.9407L5.5352 67.8218L5.91057 68.9151L12.304 66.7202L12.0146 65.8771L9.52482 66.7319L6.8646 67.7335L11.3211 63.8572L11.0995 63.2117L5.2165 62.89L7.91933 62.0554L10.4091 61.2006L10.1196 60.3575L3.7262 62.5524L4.10006 63.6414Z" fill="white"/>
<path d="M78.8864 75.3457C78.3289 74.988 77.902 74.5816 77.6055 74.1266C77.3117 73.6733 77.1657 73.2045 77.1675 72.7202C77.1693 72.236 77.3173 71.7646 77.6115 71.3061C77.899 70.8581 78.2633 70.531 78.7045 70.325C79.1482 70.1206 79.6351 70.0524 80.1652 70.1204C80.6962 70.1927 81.2316 70.3984 81.7716 70.7375L82.1819 71.0008C82.7289 71.3518 83.1511 71.7569 83.4485 72.2162C83.7459 72.6755 83.8941 73.1494 83.8932 73.6379C83.8933 74.1307 83.7495 74.6012 83.462 75.0492C83.1695 75.5051 82.8014 75.8352 82.3576 76.0396C81.9149 76.2482 81.4236 76.3118 80.8838 76.2302C80.3467 76.1503 79.8007 75.9324 79.2458 75.5764L78.8864 75.3457ZM79.7325 74.8351C80.4072 75.268 81.0112 75.4643 81.5445 75.4241C82.0805 75.3855 82.5047 75.1226 82.8173 74.6355C83.1215 74.1614 83.1803 73.6714 82.9938 73.1656C82.8081 72.664 82.3974 72.2037 81.7616 71.7847L81.3435 71.5164C80.6897 71.0969 80.0874 70.9035 79.5368 70.9363C78.9871 70.9734 78.5577 71.2329 78.2484 71.7148C77.9375 72.1994 77.8727 72.6873 78.0538 73.1787C78.2376 73.6717 78.6565 74.1336 79.3105 74.5643L79.7325 74.8351Z" fill="white"/>
<path d="M13.9007 75.3457C14.4582 74.988 14.8852 74.5816 15.1816 74.1266C15.4754 73.6733 15.6214 73.2045 15.6196 72.7202C15.6178 72.236 15.4698 71.7646 15.1756 71.3061C14.8881 70.8581 14.5238 70.531 14.0826 70.325C13.6389 70.1206 13.152 70.0524 12.622 70.1204C12.091 70.1927 11.5555 70.3984 11.0155 70.7375L10.6052 71.0008C10.0582 71.3518 9.636 71.7569 9.33862 72.2162C9.04125 72.6755 8.893 73.1494 8.8939 73.6379C8.89386 74.1307 9.03759 74.6012 9.32509 75.0492C9.6176 75.5051 9.98573 75.8352 10.4295 76.0396C10.8723 76.2482 11.3635 76.3118 11.9033 76.2302C12.4404 76.1503 12.9864 75.9324 13.5413 75.5764L13.9007 75.3457ZM13.0546 74.8351C12.3799 75.268 11.7759 75.4643 11.2426 75.4241C10.7066 75.3855 10.2824 75.1226 9.96981 74.6355C9.66559 74.1614 9.60677 73.6714 9.79335 73.1656C9.979 72.664 10.3897 72.2037 11.0255 71.7847L11.4436 71.5164C12.0975 71.0969 12.6997 70.9035 13.2503 70.9363C13.8 70.9734 14.2295 71.2329 14.5387 71.7148C14.8496 72.1994 14.9145 72.6873 14.7333 73.1787C14.5495 73.6717 14.1306 74.1336 13.4766 74.5643L13.0546 74.8351Z" fill="white"/>
<path d="M75.2896 83.3801L76.8221 81.8399L72.5503 77.5894L73.1758 76.9608L77.4476 81.2113L78.9768 79.6743L79.4968 80.1917L75.8096 83.8975L75.2896 83.3801Z" fill="white"/>
<path d="M17.4975 83.3801L15.965 81.8399L20.2368 77.5894L19.6113 76.9608L15.3395 81.2113L13.8103 79.6743L13.2903 80.1917L16.9775 83.8975L17.4975 83.3801Z" fill="white"/>
<path d="M67.2324 85.6072L69.679 83.9959L68.3615 81.9952L65.5193 83.8669L65.1184 83.2582L68.705 80.8962L72.4229 86.5417L68.8751 88.8781L68.4716 88.2655L71.275 86.4193L70.0799 84.6047L67.6333 86.2159L67.2324 85.6072Z" fill="white"/>
<path d="M25.5547 85.6072L23.1081 83.9959L24.4257 81.9952L27.2678 83.8669L27.6687 83.2582L24.0821 80.8962L20.3642 86.5417L23.9121 88.8781L24.3155 88.2655L21.5121 86.4193L22.7072 84.6047L25.1538 86.2159L25.5547 85.6072Z" fill="white"/>
<path d="M60.055 92.0443L62.0753 91.2448L59.8579 85.6414L60.6824 85.3151L62.8999 90.9185L64.9159 90.1207L65.1858 90.8027L60.3249 92.7263L60.055 92.0443Z" fill="white"/>
<path d="M32.7321 92.0443L30.7118 91.2448L32.9292 85.6414L32.1047 85.3151L29.8872 90.9185L27.8712 90.1207L27.6013 90.8027L32.4622 92.7263L32.7321 92.0443Z" fill="white"/>
<path d="M54.8306 91.2369L53.1726 91.512C52.4749 91.6184 51.9018 91.5299 51.4532 91.2467C51.0046 90.9634 50.7307 90.5226 50.6314 89.9241C50.5316 89.3226 50.649 88.8106 50.9836 88.388C51.3182 87.9654 51.8249 87.6915 52.5038 87.5663L55.0549 87.143L56.1614 93.8115L55.282 93.9574L54.8306 91.2369ZM54.7105 90.5132L54.2948 88.008L52.6872 88.2747C52.2506 88.3472 51.9309 88.5194 51.7282 88.7915C51.5225 89.0641 51.452 89.3958 51.5168 89.7866C51.5792 90.1622 51.7459 90.4389 52.0169 90.6166C52.285 90.7949 52.6348 90.8514 53.0663 90.7861L54.7105 90.5132Z" fill="white"/>
<path d="M37.9565 91.2369L39.6145 91.512C40.3122 91.6184 40.8853 91.5299 41.3339 91.2467C41.7825 90.9634 42.0564 90.5226 42.1557 89.9241C42.2555 89.3226 42.1381 88.8106 41.8035 88.388C41.4689 87.9654 40.9622 87.6915 40.2833 87.5663L37.7322 87.143L36.6257 93.8115L37.5051 93.9574L37.9565 91.2369ZM38.0766 90.5132L38.4923 88.008L40.0999 88.2747C40.5365 88.3472 40.8562 88.5194 41.0589 88.7915C41.2647 89.0641 41.3351 89.3958 41.2703 89.7866C41.2079 90.1622 41.0412 90.4389 40.7702 90.6166C40.5021 90.7949 40.1524 90.8514 39.7208 90.7861L38.0766 90.5132Z" fill="white"/>
</svg>
