<svg xmlns="http://www.w3.org/2000/svg" xmlns:xlink="http://www.w3.org/1999/xlink"><symbol id="contacts-facebook" viewBox="0 0 18 18">
<path d="M16 0H2C0.9 0 0 0.9 0 2V16C0 17.101 0.9 18 2 18H9V11H7V8.525H9V6.475C9 4.311 10.212 2.791 12.766 2.791L14.569 2.793V5.398H13.372C12.378 5.398 12 6.144 12 6.836V8.526H14.568L14 11H12V18H16C17.1 18 18 17.101 18 16V2C18 0.9 17.1 0 16 0Z" fill="white"/>
</symbol><symbol id="contacts-instagram" viewBox="0 0 20 20">
<path fill-rule="evenodd" clip-rule="evenodd" d="M5.87727 0.06C6.94364 0.0109091 7.28364 0 10 0C12.7164 0 13.0564 0.0118182 14.1218 0.06C15.1873 0.108182 15.9145 0.278182 16.5509 0.524545C17.2173 0.776364 17.8218 1.17 18.3218 1.67909C18.8309 2.17818 19.2236 2.78182 19.4745 3.44909C19.7218 4.08545 19.8909 4.81273 19.94 5.87636C19.9891 6.94455 20 7.28455 20 10C20 12.7164 19.9882 13.0564 19.94 14.1227C19.8918 15.1864 19.7218 15.9136 19.4745 16.55C19.2236 17.2174 18.8303 17.822 18.3218 18.3218C17.8218 18.8309 17.2173 19.2236 16.5509 19.4745C15.9145 19.7218 15.1873 19.8909 14.1236 19.94C13.0564 19.9891 12.7164 20 10 20C7.28364 20 6.94364 19.9882 5.87727 19.94C4.81364 19.8918 4.08636 19.7218 3.45 19.4745C2.78266 19.2236 2.17802 18.8302 1.67818 18.3218C1.16944 17.8224 0.775741 17.2181 0.524545 16.5509C0.278182 15.9145 0.109091 15.1873 0.06 14.1236C0.0109091 13.0555 0 12.7155 0 10C0 7.28364 0.0118182 6.94364 0.06 5.87818C0.108182 4.81273 0.278182 4.08545 0.524545 3.44909C0.776112 2.78189 1.17011 2.17756 1.67909 1.67818C2.17822 1.16955 2.78225 0.775858 3.44909 0.524545C4.08545 0.278182 4.81273 0.109091 5.87636 0.06H5.87727ZM14.0409 1.86C12.9864 1.81182 12.67 1.80182 10 1.80182C7.33 1.80182 7.01364 1.81182 5.95909 1.86C4.98364 1.90455 4.45455 2.06727 4.10182 2.20455C3.63545 2.38636 3.30182 2.60182 2.95182 2.95182C2.62004 3.27459 2.36471 3.66753 2.20455 4.10182C2.06727 4.45455 1.90455 4.98364 1.86 5.95909C1.81182 7.01364 1.80182 7.33 1.80182 10C1.80182 12.67 1.81182 12.9864 1.86 14.0409C1.90455 15.0164 2.06727 15.5455 2.20455 15.8982C2.36455 16.3318 2.62 16.7255 2.95182 17.0482C3.27455 17.38 3.66818 17.6355 4.10182 17.7955C4.45455 17.9327 4.98364 18.0955 5.95909 18.14C7.01364 18.1882 7.32909 18.1982 10 18.1982C12.6709 18.1982 12.9864 18.1882 14.0409 18.14C15.0164 18.0955 15.5455 17.9327 15.8982 17.7955C16.3645 17.6136 16.6982 17.3982 17.0482 17.0482C17.38 16.7255 17.6355 16.3318 17.7955 15.8982C17.9327 15.5455 18.0955 15.0164 18.14 14.0409C18.1882 12.9864 18.1982 12.67 18.1982 10C18.1982 7.33 18.1882 7.01364 18.14 5.95909C18.0955 4.98364 17.9327 4.45455 17.7955 4.10182C17.6136 3.63545 17.3982 3.30182 17.0482 2.95182C16.7254 2.62006 16.3325 2.36474 15.8982 2.20455C15.5455 2.06727 15.0164 1.90455 14.0409 1.86ZM8.72273 13.0827C9.43605 13.3797 10.2303 13.4197 10.9699 13.1961C11.7095 12.9725 12.3485 12.499 12.7778 11.8566C13.2071 11.2142 13.4001 10.4426 13.3237 9.67373C13.2473 8.90485 12.9064 8.18634 12.3591 7.64091C12.0102 7.29225 11.5884 7.02528 11.1239 6.85922C10.6595 6.69317 10.164 6.63215 9.67318 6.68056C9.18233 6.72897 8.70832 6.88562 8.28528 7.13921C7.86223 7.3928 7.50068 7.73704 7.22664 8.14714C6.9526 8.55723 6.7729 9.02299 6.70047 9.51087C6.62804 9.99876 6.66468 10.4966 6.80776 10.9687C6.95084 11.4407 7.1968 11.8751 7.52793 12.2407C7.85906 12.6062 8.26711 12.8938 8.72273 13.0827ZM6.36545 6.36545C6.84275 5.88816 7.40938 5.50955 8.033 5.25124C8.65662 4.99293 9.325 4.85998 10 4.85998C10.675 4.85998 11.3434 4.99293 11.967 5.25124C12.5906 5.50955 13.1573 5.88816 13.6345 6.36545C14.1118 6.84275 14.4905 7.40938 14.7488 8.033C15.0071 8.65662 15.14 9.325 15.14 10C15.14 10.675 15.0071 11.3434 14.7488 11.967C14.4905 12.5906 14.1118 13.1573 13.6345 13.6345C12.6706 14.5985 11.3632 15.14 10 15.14C8.63678 15.14 7.3294 14.5985 6.36545 13.6345C5.40151 12.6706 4.85998 11.3632 4.85998 10C4.85998 8.63678 5.40151 7.3294 6.36545 6.36545ZM16.28 5.62545C16.3983 5.51388 16.493 5.37971 16.5585 5.23089C16.624 5.08206 16.6589 4.92161 16.6613 4.75903C16.6637 4.59645 16.6334 4.43504 16.5723 4.28437C16.5111 4.1337 16.4204 3.99683 16.3054 3.88185C16.1904 3.76688 16.0536 3.67614 15.9029 3.61502C15.7522 3.55389 15.5908 3.52361 15.4282 3.52598C15.2657 3.52835 15.1052 3.56332 14.9564 3.62881C14.8076 3.69431 14.6734 3.789 14.5618 3.90727C14.3448 4.1373 14.226 4.44284 14.2306 4.75903C14.2352 5.07522 14.3629 5.37716 14.5865 5.60077C14.8101 5.82437 15.1121 5.95203 15.4282 5.95664C15.7444 5.96125 16.05 5.84245 16.28 5.62545Z" fill="white"/>
</symbol><symbol id="contacts-odnoclassniky" viewBox="0 0 14 20">
<path d="M12.8301 10.74C12.5501 10.17 11.7601 9.69 10.7101 10.5C9.28005 11.64 7.00005 11.64 7.00005 11.64C7.00005 11.64 4.72005 11.64 3.29005 10.5C2.24005 9.69 1.45005 10.17 1.17005 10.74C0.670051 11.74 1.23005 12.23 2.50005 13.04C3.59005 13.74 5.08005 14 6.04005 14.1L5.24005 14.9C4.10005 16.03 3.00005 17.12 2.25005 17.88C1.80005 18.34 1.80005 19.07 2.25005 19.5L2.39005 19.66C2.84005 20.11 3.58005 20.11 4.03005 19.66L7.00005 16.68C8.15005 17.81 9.24005 18.9 10.0001 19.66C10.4501 20.11 11.18 20.11 11.64 19.66L11.7701 19.5C12.2301 19.07 12.2301 18.34 11.7701 17.88L8.79005 14.9L8.00005 14.09C8.95005 14 10.4201 13.73 11.5001 13.04C12.7701 12.23 13.3301 11.74 12.8301 10.74ZM7.00005 2.57C8.38005 2.57 9.50005 3.69 9.50005 5.06C9.50005 6.44 8.38005 7.55 7.00005 7.55C5.62005 7.55 4.50005 6.44 4.50005 5.06C4.50005 3.69 5.62005 2.57 7.00005 2.57ZM7.00005 10.12C9.80005 10.12 12.0601 7.86 12.0601 5.06C12.0601 3.718 11.5269 2.43097 10.578 1.48204C9.62908 0.533106 8.34205 0 7.00005 0C5.65806 0 4.37102 0.533106 3.42209 1.48204C2.47316 2.43097 1.94005 3.718 1.94005 5.06C1.94005 7.86 4.20005 10.12 7.00005 10.12Z" fill="white"/>
</symbol><symbol id="contacts-twitter" viewBox="0 0 24 20">
<path d="M23.643 2.93708C22.808 3.30708 21.911 3.55708 20.968 3.67008C21.941 3.08787 22.669 2.17154 23.016 1.09208C22.1019 1.63507 21.1014 2.01727 20.058 2.22208C19.3564 1.47294 18.4271 0.976403 17.4143 0.809551C16.4016 0.642699 15.3621 0.814868 14.4572 1.29933C13.5524 1.78379 12.8328 2.55344 12.4102 3.48878C11.9875 4.42412 11.8855 5.47283 12.12 6.47208C10.2677 6.37907 8.45564 5.89763 6.80144 5.05898C5.14723 4.22034 3.68785 3.04324 2.51801 1.60408C2.11801 2.29408 1.88801 3.09408 1.88801 3.94608C1.88757 4.71307 2.07644 5.46832 2.43789 6.14481C2.79934 6.8213 3.32217 7.39812 3.96001 7.82408C3.22029 7.80054 2.49688 7.60066 1.85001 7.24108V7.30108C1.84994 8.37682 2.22204 9.41945 2.90319 10.2521C3.58434 11.0847 4.53258 11.656 5.58701 11.8691C4.9008 12.0548 4.18135 12.0821 3.48301 11.9491C3.78051 12.8747 4.36001 13.6841 5.14038 14.264C5.92075 14.8439 6.86293 15.1653 7.83501 15.1831C6.18484 16.4785 4.1469 17.1812 2.04901 17.1781C1.67739 17.1782 1.30609 17.1565 0.937012 17.1131C3.06649 18.4823 5.54535 19.2089 8.07701 19.2061C16.647 19.2061 21.332 12.1081 21.332 5.95208C21.332 5.75208 21.327 5.55008 21.318 5.35008C22.2293 4.69105 23.0159 3.87497 23.641 2.94008L23.643 2.93708Z" fill="white"/>
</symbol><symbol id="contacts-vkontakte" viewBox="0 0 21 12">
<path d="M19.579 0.854828C19.719 0.389828 19.579 0.0488281 18.917 0.0488281H16.724C16.166 0.0488281 15.911 0.343829 15.771 0.667829C15.771 0.667829 14.656 3.38683 13.076 5.14983C12.566 5.66283 12.333 5.82483 12.055 5.82483C11.916 5.82483 11.714 5.66283 11.714 5.19783V0.854828C11.714 0.296828 11.553 0.0488281 11.088 0.0488281H7.642C7.294 0.0488281 7.084 0.306828 7.084 0.552828C7.084 1.08083 7.874 1.20283 7.955 2.69083V5.91883C7.955 6.62583 7.828 6.75483 7.548 6.75483C6.805 6.75483 4.997 4.02583 3.924 0.901828C3.715 0.294828 3.504 0.0498285 2.944 0.0498285H0.752C0.125 0.0498285 0 0.344828 0 0.668828C0 1.25083 0.743 4.13083 3.461 7.93983C5.273 10.5408 7.824 11.9508 10.148 11.9508C11.541 11.9508 11.713 11.6378 11.713 11.0978V9.13183C11.713 8.50583 11.846 8.37983 12.287 8.37983C12.611 8.37983 13.169 8.54383 14.47 9.79683C15.956 11.2828 16.202 11.9498 17.037 11.9498H19.229C19.855 11.9498 20.168 11.6368 19.988 11.0188C19.791 10.4038 19.081 9.50883 18.139 8.44983C17.627 7.84583 16.862 7.19583 16.629 6.87083C16.304 6.45183 16.398 6.26683 16.629 5.89483C16.63 5.89583 19.301 2.13383 19.579 0.854828Z" fill="white"/>
</symbol><symbol id="contacts-youtube" viewBox="0 0 21 15">
<path d="M20.5931 2.20301C20.4792 1.78041 20.2566 1.39501 19.9475 1.08518C19.6383 0.775338 19.2534 0.551868 18.8311 0.437007C17.2651 0.00700739 11.0001 7.59651e-06 11.0001 7.59651e-06C11.0001 7.59651e-06 4.73609 -0.00699261 3.16909 0.404007C2.74701 0.524154 2.36291 0.750785 2.05365 1.06214C1.7444 1.3735 1.52037 1.75913 1.40309 2.18201C0.990086 3.74801 0.986085 6.99601 0.986085 6.99601C0.986085 6.99601 0.982085 10.26 1.39209 11.81C1.62209 12.667 2.29709 13.344 3.15509 13.575C4.73709 14.005 10.9851 14.012 10.9851 14.012C10.9851 14.012 17.2501 14.019 18.8161 13.609C19.2386 13.4943 19.6238 13.2714 19.9337 12.9622C20.2436 12.653 20.4675 12.2682 20.5831 11.846C20.9971 10.281 21.0001 7.03401 21.0001 7.03401C21.0001 7.03401 21.0201 3.76901 20.5931 2.20301ZM8.99609 10.005L9.00109 4.00501L14.2081 7.01001L8.99609 10.005Z" fill="white"/>
</symbol></svg>